<svg width="50" height="50" viewBox="0 0 22 22" fill="none" xmlns="http://www.w3.org/2000/svg">
<path fill-rule="evenodd" clip-rule="evenodd" d="M18.8196 4.15282C19.088 3.88434 19.088 3.44904 18.8196 3.18055C18.5511 2.91207 18.1158 2.91207 17.8473 3.18055L3.18061 17.8472C2.91213 18.1157 2.91213 18.551 3.18061 18.8195C3.4491 19.088 3.8844 19.088 4.15288 18.8195L6.93498 16.0374C8.14298 16.5946 9.52595 16.9584 11.0001 16.9584C13.3997 16.9584 15.5577 15.9946 17.1128 14.8011C17.8913 14.2036 18.5301 13.54 18.9783 12.8941C19.418 12.2606 19.7084 11.5944 19.7084 11C19.7084 10.4056 19.418 9.73943 18.9783 9.10589C18.5301 8.46006 17.8913 7.79644 17.1128 7.19893C16.8647 7.00855 16.6013 6.82402 16.3241 6.64832L18.8196 4.15282ZM13.8681 9.10431L12.8616 10.1108C12.9904 10.38 13.0626 10.6816 13.0626 11C13.0626 12.1391 12.1392 13.0625 11.0001 13.0625C10.6817 13.0625 10.3801 12.9904 10.1109 12.8615L9.10438 13.868C9.6478 14.2279 10.2995 14.4375 11.0001 14.4375C12.8986 14.4375 14.4376 12.8985 14.4376 11C14.4376 10.2994 14.228 9.64774 13.8681 9.10431Z" fill="black"/>
<path d="M11.6023 7.61509C11.6861 7.6299 11.7727 7.60514 11.8329 7.54494L13.5878 5.79009C13.7201 5.65773 13.6652 5.43288 13.4847 5.38321C12.6992 5.167 11.8654 5.04169 11.0001 5.04169C8.60046 5.04169 6.44242 6.00546 4.8874 7.19893C4.10887 7.79644 3.47006 8.46006 3.02186 9.10589C2.5822 9.73943 2.29175 10.4056 2.29175 11C2.29175 11.5944 2.5822 12.2606 3.02186 12.8941C3.40149 13.4412 3.91785 14.0009 4.54004 14.5225C4.63774 14.6044 4.78154 14.5963 4.87169 14.5061L7.545 11.8328C7.6052 11.7726 7.62997 11.6861 7.61515 11.6022C7.5806 11.4067 7.56258 11.2055 7.56258 11C7.56258 9.10154 9.1016 7.56252 11.0001 7.56252C11.2055 7.56252 11.4068 7.58054 11.6023 7.61509Z" fill="black"/>
</svg>
